<mxfile host="app.diagrams.net" modified="2021-09-17T22:13:15.309Z" agent="5.0 (Windows NT 10.0; Win64; x64) AppleWebKit/537.36 (KHTML, like Gecko) Chrome/93.0.4577.82 Safari/537.36" etag="bYjLlCefYa9j7w1YITAh" version="15.2.9" type="github">
  <diagram id="R2lEEEUBdFMjLlhIrx00" name="Page-1">
    <mxGraphModel dx="2090" dy="689" grid="1" gridSize="10" guides="1" tooltips="1" connect="1" arrows="1" fold="1" page="1" pageScale="1" pageWidth="850" pageHeight="1100" math="0" shadow="0" extFonts="Permanent Marker^https://fonts.googleapis.com/css?family=Permanent+Marker">
      <root>
        <mxCell id="0" />
        <mxCell id="1" parent="0" />
        <mxCell id="ynNqAgBeD6FO-1CvZPlz-10" value="&lt;span style=&quot;font-size: 14px;&quot;&gt;Student&lt;/span&gt;" style="whiteSpace=wrap;html=1;align=center;fontStyle=1;fontSize=14;" vertex="1" parent="1">
          <mxGeometry x="170" y="440" width="100" height="40" as="geometry" />
        </mxCell>
        <mxCell id="ynNqAgBeD6FO-1CvZPlz-11" value="Name" style="ellipse;whiteSpace=wrap;html=1;align=center;fontStyle=1;fontSize=14;" vertex="1" parent="1">
          <mxGeometry x="180" y="520" width="100" height="40" as="geometry" />
        </mxCell>
        <mxCell id="ynNqAgBeD6FO-1CvZPlz-12" value="SID" style="ellipse;whiteSpace=wrap;html=1;align=center;fontStyle=5;fontSize=14;" vertex="1" parent="1">
          <mxGeometry x="60" y="520" width="100" height="40" as="geometry" />
        </mxCell>
        <mxCell id="ynNqAgBeD6FO-1CvZPlz-13" value="First Name" style="ellipse;whiteSpace=wrap;html=1;align=center;fontStyle=1;fontSize=14;" vertex="1" parent="1">
          <mxGeometry x="100" y="570" width="100" height="40" as="geometry" />
        </mxCell>
        <mxCell id="ynNqAgBeD6FO-1CvZPlz-14" value="Last Name" style="ellipse;whiteSpace=wrap;html=1;align=center;fontStyle=1;fontSize=14;" vertex="1" parent="1">
          <mxGeometry x="210" y="570" width="100" height="40" as="geometry" />
        </mxCell>
        <mxCell id="ynNqAgBeD6FO-1CvZPlz-15" value="Status" style="ellipse;whiteSpace=wrap;html=1;align=center;fontStyle=1;fontSize=14;" vertex="1" parent="1">
          <mxGeometry x="310" y="520" width="100" height="40" as="geometry" />
        </mxCell>
        <mxCell id="ynNqAgBeD6FO-1CvZPlz-16" value="&lt;span style=&quot;font-size: 14px;&quot;&gt;Email&lt;/span&gt;" style="ellipse;whiteSpace=wrap;html=1;align=center;fontStyle=1;fontSize=14;" vertex="1" parent="1">
          <mxGeometry x="70" y="360" width="100" height="40" as="geometry" />
        </mxCell>
        <mxCell id="ynNqAgBeD6FO-1CvZPlz-17" value="&lt;span style=&quot;font-size: 14px;&quot;&gt;GPA&lt;/span&gt;" style="ellipse;whiteSpace=wrap;html=1;align=center;dashed=1;fontStyle=1;fontSize=14;" vertex="1" parent="1">
          <mxGeometry x="20" y="440" width="100" height="40" as="geometry" />
        </mxCell>
        <mxCell id="ynNqAgBeD6FO-1CvZPlz-20" value="" style="endArrow=none;html=1;rounded=0;exitX=1;exitY=0.5;exitDx=0;exitDy=0;entryX=0;entryY=0.5;entryDx=0;entryDy=0;fontStyle=1;fontSize=14;" edge="1" parent="1" source="ynNqAgBeD6FO-1CvZPlz-17" target="ynNqAgBeD6FO-1CvZPlz-10">
          <mxGeometry relative="1" as="geometry">
            <mxPoint x="220" y="360" as="sourcePoint" />
            <mxPoint x="380" y="360" as="targetPoint" />
          </mxGeometry>
        </mxCell>
        <mxCell id="ynNqAgBeD6FO-1CvZPlz-21" value="" style="endArrow=none;html=1;rounded=0;exitX=1;exitY=0.5;exitDx=0;exitDy=0;entryX=0;entryY=0;entryDx=0;entryDy=0;fontStyle=1;fontSize=14;" edge="1" parent="1" source="ynNqAgBeD6FO-1CvZPlz-16" target="ynNqAgBeD6FO-1CvZPlz-10">
          <mxGeometry relative="1" as="geometry">
            <mxPoint x="220" y="360" as="sourcePoint" />
            <mxPoint x="170" y="430" as="targetPoint" />
          </mxGeometry>
        </mxCell>
        <mxCell id="ynNqAgBeD6FO-1CvZPlz-22" value="" style="endArrow=none;html=1;rounded=0;exitX=1;exitY=0;exitDx=0;exitDy=0;entryX=0;entryY=1;entryDx=0;entryDy=0;fontStyle=1;fontSize=14;" edge="1" parent="1" source="ynNqAgBeD6FO-1CvZPlz-12" target="ynNqAgBeD6FO-1CvZPlz-10">
          <mxGeometry relative="1" as="geometry">
            <mxPoint x="220" y="360" as="sourcePoint" />
            <mxPoint x="380" y="360" as="targetPoint" />
          </mxGeometry>
        </mxCell>
        <mxCell id="ynNqAgBeD6FO-1CvZPlz-23" value="" style="endArrow=none;html=1;rounded=0;exitX=0.5;exitY=0;exitDx=0;exitDy=0;entryX=0.414;entryY=1.061;entryDx=0;entryDy=0;entryPerimeter=0;fontStyle=1;fontSize=14;" edge="1" parent="1" source="ynNqAgBeD6FO-1CvZPlz-11" target="ynNqAgBeD6FO-1CvZPlz-10">
          <mxGeometry relative="1" as="geometry">
            <mxPoint x="220" y="360" as="sourcePoint" />
            <mxPoint x="380" y="360" as="targetPoint" />
          </mxGeometry>
        </mxCell>
        <mxCell id="ynNqAgBeD6FO-1CvZPlz-24" value="" style="endArrow=none;html=1;rounded=0;exitX=1;exitY=1;exitDx=0;exitDy=0;entryX=0;entryY=0;entryDx=0;entryDy=0;fontStyle=1;fontSize=14;" edge="1" parent="1" source="ynNqAgBeD6FO-1CvZPlz-10" target="ynNqAgBeD6FO-1CvZPlz-15">
          <mxGeometry relative="1" as="geometry">
            <mxPoint x="220" y="360" as="sourcePoint" />
            <mxPoint x="380" y="360" as="targetPoint" />
          </mxGeometry>
        </mxCell>
        <mxCell id="ynNqAgBeD6FO-1CvZPlz-25" value="" style="endArrow=none;html=1;rounded=0;exitX=0.5;exitY=0;exitDx=0;exitDy=0;entryX=0;entryY=1;entryDx=0;entryDy=0;fontStyle=1;fontSize=14;" edge="1" parent="1" source="ynNqAgBeD6FO-1CvZPlz-13" target="ynNqAgBeD6FO-1CvZPlz-11">
          <mxGeometry relative="1" as="geometry">
            <mxPoint x="220" y="360" as="sourcePoint" />
            <mxPoint x="380" y="360" as="targetPoint" />
          </mxGeometry>
        </mxCell>
        <mxCell id="ynNqAgBeD6FO-1CvZPlz-26" value="" style="endArrow=none;html=1;rounded=0;exitX=0.5;exitY=0;exitDx=0;exitDy=0;entryX=1;entryY=1;entryDx=0;entryDy=0;fontStyle=1;fontSize=14;" edge="1" parent="1" source="ynNqAgBeD6FO-1CvZPlz-14" target="ynNqAgBeD6FO-1CvZPlz-11">
          <mxGeometry relative="1" as="geometry">
            <mxPoint x="220" y="360" as="sourcePoint" />
            <mxPoint x="380" y="360" as="targetPoint" />
          </mxGeometry>
        </mxCell>
        <mxCell id="ynNqAgBeD6FO-1CvZPlz-27" value="Faculty" style="whiteSpace=wrap;html=1;align=center;fontStyle=1;fontSize=14;" vertex="1" parent="1">
          <mxGeometry x="650" y="440" width="100" height="40" as="geometry" />
        </mxCell>
        <mxCell id="ynNqAgBeD6FO-1CvZPlz-28" value="FID" style="ellipse;whiteSpace=wrap;html=1;align=center;fontStyle=5;fontSize=14;" vertex="1" parent="1">
          <mxGeometry x="500" y="520" width="100" height="40" as="geometry" />
        </mxCell>
        <mxCell id="ynNqAgBeD6FO-1CvZPlz-29" value="Name" style="ellipse;whiteSpace=wrap;html=1;align=center;fontStyle=1;fontSize=14;" vertex="1" parent="1">
          <mxGeometry x="670" y="510" width="100" height="40" as="geometry" />
        </mxCell>
        <mxCell id="ynNqAgBeD6FO-1CvZPlz-30" value="First Name" style="ellipse;whiteSpace=wrap;html=1;align=center;fontStyle=1;fontSize=14;" vertex="1" parent="1">
          <mxGeometry x="635" y="560" width="100" height="40" as="geometry" />
        </mxCell>
        <mxCell id="ynNqAgBeD6FO-1CvZPlz-31" value="Last Name" style="ellipse;whiteSpace=wrap;html=1;align=center;fontStyle=1;fontSize=14;" vertex="1" parent="1">
          <mxGeometry x="740" y="560" width="100" height="40" as="geometry" />
        </mxCell>
        <mxCell id="ynNqAgBeD6FO-1CvZPlz-32" value="office" style="ellipse;whiteSpace=wrap;html=1;align=center;fontStyle=1;fontSize=14;" vertex="1" parent="1">
          <mxGeometry x="780" y="500" width="100" height="40" as="geometry" />
        </mxCell>
        <mxCell id="ynNqAgBeD6FO-1CvZPlz-34" value="Rank" style="ellipse;whiteSpace=wrap;html=1;align=center;fontStyle=1;fontSize=14;" vertex="1" parent="1">
          <mxGeometry x="800" y="440" width="100" height="40" as="geometry" />
        </mxCell>
        <mxCell id="ynNqAgBeD6FO-1CvZPlz-35" value="Email" style="ellipse;whiteSpace=wrap;html=1;align=center;fontStyle=1;fontSize=14;" vertex="1" parent="1">
          <mxGeometry x="790" y="360" width="100" height="40" as="geometry" />
        </mxCell>
        <mxCell id="ynNqAgBeD6FO-1CvZPlz-36" value="" style="endArrow=none;html=1;rounded=0;exitX=1;exitY=0;exitDx=0;exitDy=0;entryX=0;entryY=0.5;entryDx=0;entryDy=0;fontStyle=1;fontSize=14;" edge="1" parent="1" source="ynNqAgBeD6FO-1CvZPlz-27" target="ynNqAgBeD6FO-1CvZPlz-35">
          <mxGeometry relative="1" as="geometry">
            <mxPoint x="490" y="340" as="sourcePoint" />
            <mxPoint x="650" y="340" as="targetPoint" />
          </mxGeometry>
        </mxCell>
        <mxCell id="ynNqAgBeD6FO-1CvZPlz-38" value="" style="endArrow=none;html=1;rounded=0;exitX=1;exitY=0;exitDx=0;exitDy=0;entryX=0;entryY=1;entryDx=0;entryDy=0;fontStyle=1;fontSize=14;" edge="1" parent="1" source="ynNqAgBeD6FO-1CvZPlz-28" target="ynNqAgBeD6FO-1CvZPlz-27">
          <mxGeometry relative="1" as="geometry">
            <mxPoint x="490" y="340" as="sourcePoint" />
            <mxPoint x="650" y="340" as="targetPoint" />
          </mxGeometry>
        </mxCell>
        <mxCell id="ynNqAgBeD6FO-1CvZPlz-39" value="" style="endArrow=none;html=1;rounded=0;exitX=0.5;exitY=0;exitDx=0;exitDy=0;entryX=1;entryY=1;entryDx=0;entryDy=0;fontStyle=1;fontSize=14;" edge="1" parent="1" source="ynNqAgBeD6FO-1CvZPlz-31" target="ynNqAgBeD6FO-1CvZPlz-29">
          <mxGeometry relative="1" as="geometry">
            <mxPoint x="490" y="340" as="sourcePoint" />
            <mxPoint x="681" y="560" as="targetPoint" />
          </mxGeometry>
        </mxCell>
        <mxCell id="ynNqAgBeD6FO-1CvZPlz-40" value="" style="endArrow=none;html=1;rounded=0;exitX=0.5;exitY=0;exitDx=0;exitDy=0;entryX=0;entryY=1;entryDx=0;entryDy=0;fontStyle=1;fontSize=14;" edge="1" parent="1" source="ynNqAgBeD6FO-1CvZPlz-30" target="ynNqAgBeD6FO-1CvZPlz-29">
          <mxGeometry relative="1" as="geometry">
            <mxPoint x="490" y="340" as="sourcePoint" />
            <mxPoint x="650" y="340" as="targetPoint" />
          </mxGeometry>
        </mxCell>
        <mxCell id="ynNqAgBeD6FO-1CvZPlz-41" value="" style="endArrow=none;html=1;rounded=0;exitX=0.5;exitY=1;exitDx=0;exitDy=0;entryX=0.6;entryY=-0.011;entryDx=0;entryDy=0;entryPerimeter=0;fontStyle=1;fontSize=14;" edge="1" parent="1" source="ynNqAgBeD6FO-1CvZPlz-27" target="ynNqAgBeD6FO-1CvZPlz-29">
          <mxGeometry relative="1" as="geometry">
            <mxPoint x="490" y="340" as="sourcePoint" />
            <mxPoint x="650" y="340" as="targetPoint" />
          </mxGeometry>
        </mxCell>
        <mxCell id="ynNqAgBeD6FO-1CvZPlz-42" value="" style="endArrow=none;html=1;rounded=0;exitX=1;exitY=1;exitDx=0;exitDy=0;entryX=0.5;entryY=0;entryDx=0;entryDy=0;fontStyle=1;fontSize=14;" edge="1" parent="1" source="ynNqAgBeD6FO-1CvZPlz-27" target="ynNqAgBeD6FO-1CvZPlz-32">
          <mxGeometry relative="1" as="geometry">
            <mxPoint x="490" y="340" as="sourcePoint" />
            <mxPoint x="650" y="340" as="targetPoint" />
          </mxGeometry>
        </mxCell>
        <mxCell id="ynNqAgBeD6FO-1CvZPlz-43" value="" style="endArrow=none;html=1;rounded=0;exitX=1;exitY=0.5;exitDx=0;exitDy=0;entryX=0;entryY=0.5;entryDx=0;entryDy=0;fontStyle=1;fontSize=14;" edge="1" parent="1" source="ynNqAgBeD6FO-1CvZPlz-27" target="ynNqAgBeD6FO-1CvZPlz-34">
          <mxGeometry relative="1" as="geometry">
            <mxPoint x="490" y="340" as="sourcePoint" />
            <mxPoint x="650" y="340" as="targetPoint" />
          </mxGeometry>
        </mxCell>
        <mxCell id="ynNqAgBeD6FO-1CvZPlz-44" value="Department" style="whiteSpace=wrap;html=1;align=center;fontStyle=1;fontSize=14;" vertex="1" parent="1">
          <mxGeometry x="380" y="200" width="100" height="40" as="geometry" />
        </mxCell>
        <mxCell id="ynNqAgBeD6FO-1CvZPlz-45" value="Office" style="ellipse;whiteSpace=wrap;html=1;align=center;fontStyle=1;fontSize=14;" vertex="1" parent="1">
          <mxGeometry x="580" y="120" width="100" height="40" as="geometry" />
        </mxCell>
        <mxCell id="ynNqAgBeD6FO-1CvZPlz-46" value="Phone#" style="ellipse;whiteSpace=wrap;html=1;align=center;fontStyle=1;fontSize=14;" vertex="1" parent="1">
          <mxGeometry x="425" y="120" width="100" height="40" as="geometry" />
        </mxCell>
        <mxCell id="ynNqAgBeD6FO-1CvZPlz-47" value="&lt;font style=&quot;font-size: 14px;&quot;&gt;&lt;u style=&quot;font-size: 14px;&quot;&gt;Deptname&lt;/u&gt;&lt;/font&gt;" style="ellipse;whiteSpace=wrap;html=1;align=center;fontStyle=1;fontSize=14;" vertex="1" parent="1">
          <mxGeometry x="280" y="120" width="100" height="40" as="geometry" />
        </mxCell>
        <mxCell id="ynNqAgBeD6FO-1CvZPlz-48" value="" style="endArrow=none;html=1;rounded=0;exitX=1;exitY=0;exitDx=0;exitDy=0;entryX=0;entryY=0.5;entryDx=0;entryDy=0;fontStyle=1;fontSize=14;" edge="1" parent="1" source="ynNqAgBeD6FO-1CvZPlz-44" target="ynNqAgBeD6FO-1CvZPlz-45">
          <mxGeometry relative="1" as="geometry">
            <mxPoint x="520" y="300" as="sourcePoint" />
            <mxPoint x="680" y="300" as="targetPoint" />
          </mxGeometry>
        </mxCell>
        <mxCell id="ynNqAgBeD6FO-1CvZPlz-49" value="" style="endArrow=none;html=1;rounded=0;exitX=0.5;exitY=0;exitDx=0;exitDy=0;entryX=0.5;entryY=1;entryDx=0;entryDy=0;fontStyle=1;fontSize=14;" edge="1" parent="1" source="ynNqAgBeD6FO-1CvZPlz-44" target="ynNqAgBeD6FO-1CvZPlz-46">
          <mxGeometry relative="1" as="geometry">
            <mxPoint x="520" y="300" as="sourcePoint" />
            <mxPoint x="680" y="300" as="targetPoint" />
          </mxGeometry>
        </mxCell>
        <mxCell id="ynNqAgBeD6FO-1CvZPlz-50" value="" style="endArrow=none;html=1;rounded=0;exitX=0;exitY=0;exitDx=0;exitDy=0;entryX=0.5;entryY=1;entryDx=0;entryDy=0;fontStyle=1;fontSize=14;" edge="1" parent="1" source="ynNqAgBeD6FO-1CvZPlz-44" target="ynNqAgBeD6FO-1CvZPlz-47">
          <mxGeometry relative="1" as="geometry">
            <mxPoint x="520" y="300" as="sourcePoint" />
            <mxPoint x="680" y="300" as="targetPoint" />
          </mxGeometry>
        </mxCell>
        <mxCell id="ynNqAgBeD6FO-1CvZPlz-51" value="Course" style="whiteSpace=wrap;html=1;align=center;fontStyle=1;fontSize=14;" vertex="1" parent="1">
          <mxGeometry x="390" y="900" width="100" height="40" as="geometry" />
        </mxCell>
        <mxCell id="ynNqAgBeD6FO-1CvZPlz-52" value="Dept_code" style="ellipse;whiteSpace=wrap;html=1;align=center;fontStyle=1;fontSize=14;" vertex="1" parent="1">
          <mxGeometry x="230" y="1040" width="100" height="40" as="geometry" />
        </mxCell>
        <mxCell id="ynNqAgBeD6FO-1CvZPlz-53" value="Title" style="ellipse;whiteSpace=wrap;html=1;align=center;fontStyle=1;fontSize=14;" vertex="1" parent="1">
          <mxGeometry x="420" y="960" width="100" height="40" as="geometry" />
        </mxCell>
        <mxCell id="ynNqAgBeD6FO-1CvZPlz-54" value="Credits" style="ellipse;whiteSpace=wrap;html=1;align=center;fontStyle=1;fontSize=14;" vertex="1" parent="1">
          <mxGeometry x="550" y="960" width="100" height="40" as="geometry" />
        </mxCell>
        <mxCell id="ynNqAgBeD6FO-1CvZPlz-55" value="course#" style="ellipse;whiteSpace=wrap;html=1;align=center;fontStyle=1;fontSize=14;" vertex="1" parent="1">
          <mxGeometry x="360" y="1040" width="100" height="40" as="geometry" />
        </mxCell>
        <mxCell id="ynNqAgBeD6FO-1CvZPlz-56" value="CID" style="ellipse;whiteSpace=wrap;html=1;align=center;fontStyle=5;fontSize=14;" vertex="1" parent="1">
          <mxGeometry x="280" y="960" width="100" height="40" as="geometry" />
        </mxCell>
        <mxCell id="ynNqAgBeD6FO-1CvZPlz-57" value="" style="endArrow=none;html=1;rounded=0;exitX=0.5;exitY=0;exitDx=0;exitDy=0;entryX=1;entryY=1;entryDx=0;entryDy=0;fontStyle=1;fontSize=14;" edge="1" parent="1" source="ynNqAgBeD6FO-1CvZPlz-54" target="ynNqAgBeD6FO-1CvZPlz-51">
          <mxGeometry relative="1" as="geometry">
            <mxPoint x="520" y="900" as="sourcePoint" />
            <mxPoint x="680" y="900" as="targetPoint" />
          </mxGeometry>
        </mxCell>
        <mxCell id="ynNqAgBeD6FO-1CvZPlz-58" value="" style="endArrow=none;html=1;rounded=0;exitX=0.5;exitY=0;exitDx=0;exitDy=0;entryX=0.5;entryY=1;entryDx=0;entryDy=0;fontStyle=1;fontSize=14;" edge="1" parent="1" source="ynNqAgBeD6FO-1CvZPlz-53" target="ynNqAgBeD6FO-1CvZPlz-51">
          <mxGeometry relative="1" as="geometry">
            <mxPoint x="520" y="900" as="sourcePoint" />
            <mxPoint x="680" y="900" as="targetPoint" />
          </mxGeometry>
        </mxCell>
        <mxCell id="ynNqAgBeD6FO-1CvZPlz-59" value="" style="endArrow=none;html=1;rounded=0;exitX=0.5;exitY=0;exitDx=0;exitDy=0;entryX=0;entryY=1;entryDx=0;entryDy=0;fontStyle=1;fontSize=14;" edge="1" parent="1" source="ynNqAgBeD6FO-1CvZPlz-56" target="ynNqAgBeD6FO-1CvZPlz-51">
          <mxGeometry relative="1" as="geometry">
            <mxPoint x="520" y="900" as="sourcePoint" />
            <mxPoint x="680" y="900" as="targetPoint" />
          </mxGeometry>
        </mxCell>
        <mxCell id="ynNqAgBeD6FO-1CvZPlz-60" value="" style="endArrow=none;html=1;rounded=0;exitX=0;exitY=0;exitDx=0;exitDy=0;entryX=1;entryY=1;entryDx=0;entryDy=0;fontStyle=1;fontSize=14;" edge="1" parent="1" source="ynNqAgBeD6FO-1CvZPlz-55" target="ynNqAgBeD6FO-1CvZPlz-56">
          <mxGeometry relative="1" as="geometry">
            <mxPoint x="380" y="1050" as="sourcePoint" />
            <mxPoint x="680" y="900" as="targetPoint" />
          </mxGeometry>
        </mxCell>
        <mxCell id="ynNqAgBeD6FO-1CvZPlz-61" value="" style="endArrow=none;html=1;rounded=0;exitX=0.5;exitY=0;exitDx=0;exitDy=0;entryX=0;entryY=1;entryDx=0;entryDy=0;fontStyle=1;fontSize=14;" edge="1" parent="1" source="ynNqAgBeD6FO-1CvZPlz-52" target="ynNqAgBeD6FO-1CvZPlz-56">
          <mxGeometry relative="1" as="geometry">
            <mxPoint x="280" y="1050" as="sourcePoint" />
            <mxPoint x="680" y="900" as="targetPoint" />
          </mxGeometry>
        </mxCell>
        <mxCell id="ynNqAgBeD6FO-1CvZPlz-62" value="Pre-requisite" style="shape=rhombus;perimeter=rhombusPerimeter;whiteSpace=wrap;html=1;align=center;fontStyle=1;fontSize=14;" vertex="1" parent="1">
          <mxGeometry x="630" y="890" width="120" height="60" as="geometry" />
        </mxCell>
        <mxCell id="ynNqAgBeD6FO-1CvZPlz-64" value="Class" style="shape=ext;margin=3;double=1;whiteSpace=wrap;html=1;align=center;fontStyle=1;fontSize=14;" vertex="1" parent="1">
          <mxGeometry x="390" y="720" width="100" height="40" as="geometry" />
        </mxCell>
        <mxCell id="ynNqAgBeD6FO-1CvZPlz-66" value="&lt;span style=&quot;border-bottom: 1px dotted; font-size: 14px;&quot;&gt;semester&lt;/span&gt;" style="ellipse;whiteSpace=wrap;html=1;align=center;fontStyle=1;fontSize=14;" vertex="1" parent="1">
          <mxGeometry x="240" y="830" width="100" height="40" as="geometry" />
        </mxCell>
        <mxCell id="ynNqAgBeD6FO-1CvZPlz-67" value="&lt;span style=&quot;border-bottom: 1px dotted; font-size: 14px;&quot;&gt;year&lt;/span&gt;" style="ellipse;whiteSpace=wrap;html=1;align=center;fontStyle=1;fontSize=14;" vertex="1" parent="1">
          <mxGeometry x="240" y="780" width="100" height="40" as="geometry" />
        </mxCell>
        <mxCell id="ynNqAgBeD6FO-1CvZPlz-68" value="&lt;span style=&quot;border-bottom: 1px dotted; font-size: 14px;&quot;&gt;sect#&lt;/span&gt;" style="ellipse;whiteSpace=wrap;html=1;align=center;fontStyle=1;fontSize=14;" vertex="1" parent="1">
          <mxGeometry x="240" y="730" width="100" height="40" as="geometry" />
        </mxCell>
        <mxCell id="ynNqAgBeD6FO-1CvZPlz-69" value="Limit" style="ellipse;whiteSpace=wrap;html=1;align=center;fontStyle=1;fontSize=14;" vertex="1" parent="1">
          <mxGeometry x="240" y="880" width="100" height="40" as="geometry" />
        </mxCell>
        <mxCell id="ynNqAgBeD6FO-1CvZPlz-70" value="Size" style="ellipse;whiteSpace=wrap;html=1;align=center;fontStyle=1;fontSize=14;" vertex="1" parent="1">
          <mxGeometry x="510" y="840" width="100" height="40" as="geometry" />
        </mxCell>
        <mxCell id="ynNqAgBeD6FO-1CvZPlz-71" value="Classroom" style="ellipse;whiteSpace=wrap;html=1;align=center;fontStyle=1;fontSize=14;" vertex="1" parent="1">
          <mxGeometry x="510" y="790" width="100" height="40" as="geometry" />
        </mxCell>
        <mxCell id="ynNqAgBeD6FO-1CvZPlz-72" value="Capacity" style="ellipse;whiteSpace=wrap;html=1;align=center;fontStyle=1;fontSize=14;" vertex="1" parent="1">
          <mxGeometry x="510" y="740" width="100" height="40" as="geometry" />
        </mxCell>
        <mxCell id="ynNqAgBeD6FO-1CvZPlz-73" value="Time" style="ellipse;whiteSpace=wrap;html=1;align=center;fontStyle=1;fontSize=14;" vertex="1" parent="1">
          <mxGeometry x="510" y="690" width="100" height="40" as="geometry" />
        </mxCell>
        <mxCell id="ynNqAgBeD6FO-1CvZPlz-74" value="Start_time" style="ellipse;whiteSpace=wrap;html=1;align=center;fontStyle=1;fontSize=14;" vertex="1" parent="1">
          <mxGeometry x="650" y="670" width="100" height="40" as="geometry" />
        </mxCell>
        <mxCell id="ynNqAgBeD6FO-1CvZPlz-75" value="End_time" style="ellipse;whiteSpace=wrap;html=1;align=center;fontStyle=1;fontSize=14;" vertex="1" parent="1">
          <mxGeometry x="650" y="720" width="100" height="40" as="geometry" />
        </mxCell>
        <mxCell id="ynNqAgBeD6FO-1CvZPlz-76" value="Days" style="ellipse;whiteSpace=wrap;html=1;align=center;fontStyle=1;fontSize=14;" vertex="1" parent="1">
          <mxGeometry x="510" y="640" width="100" height="40" as="geometry" />
        </mxCell>
        <mxCell id="ynNqAgBeD6FO-1CvZPlz-77" value="" style="endArrow=none;html=1;rounded=0;entryX=0;entryY=0.5;entryDx=0;entryDy=0;exitX=1;exitY=0;exitDx=0;exitDy=0;fontStyle=1;fontSize=14;" edge="1" parent="1" source="ynNqAgBeD6FO-1CvZPlz-64" target="ynNqAgBeD6FO-1CvZPlz-76">
          <mxGeometry relative="1" as="geometry">
            <mxPoint x="490" y="720" as="sourcePoint" />
            <mxPoint x="580" y="720" as="targetPoint" />
          </mxGeometry>
        </mxCell>
        <mxCell id="ynNqAgBeD6FO-1CvZPlz-78" value="" style="endArrow=none;html=1;rounded=0;exitX=0;exitY=0.5;exitDx=0;exitDy=0;entryX=1;entryY=1;entryDx=0;entryDy=0;fontStyle=1;fontSize=14;" edge="1" parent="1" source="ynNqAgBeD6FO-1CvZPlz-75" target="ynNqAgBeD6FO-1CvZPlz-73">
          <mxGeometry relative="1" as="geometry">
            <mxPoint x="420" y="720" as="sourcePoint" />
            <mxPoint x="600" y="720" as="targetPoint" />
          </mxGeometry>
        </mxCell>
        <mxCell id="ynNqAgBeD6FO-1CvZPlz-79" value="" style="endArrow=none;html=1;rounded=0;exitX=1;exitY=0.5;exitDx=0;exitDy=0;entryX=0;entryY=0.5;entryDx=0;entryDy=0;fontStyle=1;fontSize=14;" edge="1" parent="1" source="ynNqAgBeD6FO-1CvZPlz-73" target="ynNqAgBeD6FO-1CvZPlz-74">
          <mxGeometry relative="1" as="geometry">
            <mxPoint x="420" y="720" as="sourcePoint" />
            <mxPoint x="580" y="720" as="targetPoint" />
          </mxGeometry>
        </mxCell>
        <mxCell id="ynNqAgBeD6FO-1CvZPlz-80" value="" style="endArrow=none;html=1;rounded=0;exitX=0;exitY=0.5;exitDx=0;exitDy=0;entryX=1;entryY=0.75;entryDx=0;entryDy=0;fontStyle=1;fontSize=14;" edge="1" parent="1" source="ynNqAgBeD6FO-1CvZPlz-72" target="ynNqAgBeD6FO-1CvZPlz-64">
          <mxGeometry relative="1" as="geometry">
            <mxPoint x="420" y="720" as="sourcePoint" />
            <mxPoint x="580" y="720" as="targetPoint" />
          </mxGeometry>
        </mxCell>
        <mxCell id="ynNqAgBeD6FO-1CvZPlz-81" value="" style="endArrow=none;html=1;rounded=0;exitX=0;exitY=0.5;exitDx=0;exitDy=0;entryX=1;entryY=1;entryDx=0;entryDy=0;fontStyle=1;fontSize=14;" edge="1" parent="1" source="ynNqAgBeD6FO-1CvZPlz-71" target="ynNqAgBeD6FO-1CvZPlz-64">
          <mxGeometry relative="1" as="geometry">
            <mxPoint x="420" y="720" as="sourcePoint" />
            <mxPoint x="580" y="720" as="targetPoint" />
          </mxGeometry>
        </mxCell>
        <mxCell id="ynNqAgBeD6FO-1CvZPlz-82" value="" style="endArrow=none;html=1;rounded=0;exitX=0;exitY=0.5;exitDx=0;exitDy=0;entryX=0.75;entryY=1;entryDx=0;entryDy=0;fontStyle=1;fontSize=14;" edge="1" parent="1" source="ynNqAgBeD6FO-1CvZPlz-70" target="ynNqAgBeD6FO-1CvZPlz-64">
          <mxGeometry relative="1" as="geometry">
            <mxPoint x="420" y="720" as="sourcePoint" />
            <mxPoint x="580" y="720" as="targetPoint" />
          </mxGeometry>
        </mxCell>
        <mxCell id="ynNqAgBeD6FO-1CvZPlz-83" value="" style="endArrow=none;html=1;rounded=0;exitX=1;exitY=0.5;exitDx=0;exitDy=0;entryX=0;entryY=1;entryDx=0;entryDy=0;fontStyle=1;fontSize=14;" edge="1" parent="1" source="ynNqAgBeD6FO-1CvZPlz-69" target="ynNqAgBeD6FO-1CvZPlz-64">
          <mxGeometry relative="1" as="geometry">
            <mxPoint x="420" y="720" as="sourcePoint" />
            <mxPoint x="580" y="720" as="targetPoint" />
          </mxGeometry>
        </mxCell>
        <mxCell id="ynNqAgBeD6FO-1CvZPlz-84" value="" style="endArrow=none;html=1;rounded=0;exitX=1;exitY=0;exitDx=0;exitDy=0;entryX=0;entryY=0.5;entryDx=0;entryDy=0;fontStyle=1;fontSize=14;" edge="1" parent="1" source="ynNqAgBeD6FO-1CvZPlz-66" target="ynNqAgBeD6FO-1CvZPlz-64">
          <mxGeometry relative="1" as="geometry">
            <mxPoint x="420" y="720" as="sourcePoint" />
            <mxPoint x="580" y="720" as="targetPoint" />
          </mxGeometry>
        </mxCell>
        <mxCell id="ynNqAgBeD6FO-1CvZPlz-85" value="" style="endArrow=none;html=1;rounded=0;exitX=1;exitY=0;exitDx=0;exitDy=0;entryX=0;entryY=0.25;entryDx=0;entryDy=0;fontStyle=1;fontSize=14;" edge="1" parent="1" source="ynNqAgBeD6FO-1CvZPlz-67" target="ynNqAgBeD6FO-1CvZPlz-64">
          <mxGeometry relative="1" as="geometry">
            <mxPoint x="420" y="720" as="sourcePoint" />
            <mxPoint x="580" y="720" as="targetPoint" />
          </mxGeometry>
        </mxCell>
        <mxCell id="ynNqAgBeD6FO-1CvZPlz-86" value="" style="endArrow=none;html=1;rounded=0;exitX=1;exitY=0.5;exitDx=0;exitDy=0;entryX=0;entryY=0;entryDx=0;entryDy=0;fontStyle=1;fontSize=14;" edge="1" parent="1" source="ynNqAgBeD6FO-1CvZPlz-68" target="ynNqAgBeD6FO-1CvZPlz-64">
          <mxGeometry relative="1" as="geometry">
            <mxPoint x="420" y="720" as="sourcePoint" />
            <mxPoint x="580" y="720" as="targetPoint" />
          </mxGeometry>
        </mxCell>
        <mxCell id="ynNqAgBeD6FO-1CvZPlz-87" value="" style="endArrow=none;html=1;rounded=0;exitX=1;exitY=0.25;exitDx=0;exitDy=0;entryX=0;entryY=0.5;entryDx=0;entryDy=0;fontStyle=1;fontSize=14;" edge="1" parent="1" source="ynNqAgBeD6FO-1CvZPlz-64" target="ynNqAgBeD6FO-1CvZPlz-73">
          <mxGeometry relative="1" as="geometry">
            <mxPoint x="420" y="720" as="sourcePoint" />
            <mxPoint x="580" y="720" as="targetPoint" />
          </mxGeometry>
        </mxCell>
        <mxCell id="ynNqAgBeD6FO-1CvZPlz-88" value="" style="endArrow=none;html=1;rounded=0;exitX=1;exitY=0.25;exitDx=0;exitDy=0;entryX=0;entryY=0;entryDx=0;entryDy=0;fontStyle=1;fontSize=14;" edge="1" parent="1" source="ynNqAgBeD6FO-1CvZPlz-51" target="ynNqAgBeD6FO-1CvZPlz-62">
          <mxGeometry relative="1" as="geometry">
            <mxPoint x="420" y="740" as="sourcePoint" />
            <mxPoint x="660" y="905" as="targetPoint" />
          </mxGeometry>
        </mxCell>
        <mxCell id="ynNqAgBeD6FO-1CvZPlz-89" value="" style="endArrow=none;html=1;rounded=0;exitX=1;exitY=0.75;exitDx=0;exitDy=0;entryX=0;entryY=1;entryDx=0;entryDy=0;fontStyle=1;fontSize=14;" edge="1" parent="1" source="ynNqAgBeD6FO-1CvZPlz-51" target="ynNqAgBeD6FO-1CvZPlz-62">
          <mxGeometry relative="1" as="geometry">
            <mxPoint x="420" y="740" as="sourcePoint" />
            <mxPoint x="580" y="740" as="targetPoint" />
          </mxGeometry>
        </mxCell>
        <mxCell id="ynNqAgBeD6FO-1CvZPlz-90" value="can be pre-requisite of (0,p)" style="text;html=1;align=center;verticalAlign=middle;resizable=0;points=[];autosize=1;strokeColor=none;fillColor=none;rotation=0;fontStyle=1;fontSize=14;" vertex="1" parent="1">
          <mxGeometry x="470" y="890" width="200" height="20" as="geometry" />
        </mxCell>
        <mxCell id="ynNqAgBeD6FO-1CvZPlz-91" value="requires (0,q)" style="text;html=1;align=center;verticalAlign=middle;resizable=0;points=[];autosize=1;strokeColor=none;fillColor=none;fontStyle=1;fontSize=14;" vertex="1" parent="1">
          <mxGeometry x="540" y="930" width="100" height="20" as="geometry" />
        </mxCell>
        <mxCell id="ynNqAgBeD6FO-1CvZPlz-94" value="DEPENDENT" style="shape=rhombus;double=1;perimeter=rhombusPerimeter;whiteSpace=wrap;html=1;align=center;fontStyle=1;fontSize=14;" vertex="1" parent="1">
          <mxGeometry x="370" y="800" width="120" height="60" as="geometry" />
        </mxCell>
        <mxCell id="ynNqAgBeD6FO-1CvZPlz-96" value="" style="endArrow=none;html=1;rounded=0;exitX=0.5;exitY=0;exitDx=0;exitDy=0;entryX=0.5;entryY=1;entryDx=0;entryDy=0;fontStyle=1;fontSize=14;" edge="1" parent="1" source="ynNqAgBeD6FO-1CvZPlz-51" target="ynNqAgBeD6FO-1CvZPlz-94">
          <mxGeometry relative="1" as="geometry">
            <mxPoint x="410" y="860" as="sourcePoint" />
            <mxPoint x="570" y="860" as="targetPoint" />
          </mxGeometry>
        </mxCell>
        <mxCell id="ynNqAgBeD6FO-1CvZPlz-97" value="" style="endArrow=none;html=1;rounded=0;exitX=0.5;exitY=0;exitDx=0;exitDy=0;entryX=0.5;entryY=1;entryDx=0;entryDy=0;fontStyle=1;fontSize=14;" edge="1" parent="1" source="ynNqAgBeD6FO-1CvZPlz-94" target="ynNqAgBeD6FO-1CvZPlz-64">
          <mxGeometry relative="1" as="geometry">
            <mxPoint x="410" y="860" as="sourcePoint" />
            <mxPoint x="570" y="860" as="targetPoint" />
          </mxGeometry>
        </mxCell>
        <mxCell id="ynNqAgBeD6FO-1CvZPlz-98" value="(0,r)" style="text;html=1;align=center;verticalAlign=middle;resizable=0;points=[];autosize=1;strokeColor=none;fillColor=none;fontStyle=1;fontSize=14;" vertex="1" parent="1">
          <mxGeometry x="430" y="880" width="40" height="20" as="geometry" />
        </mxCell>
        <mxCell id="ynNqAgBeD6FO-1CvZPlz-99" value="(1,1)" style="text;html=1;align=center;verticalAlign=middle;resizable=0;points=[];autosize=1;strokeColor=none;fillColor=none;fontStyle=1;fontSize=14;" vertex="1" parent="1">
          <mxGeometry x="430" y="760" width="40" height="20" as="geometry" />
        </mxCell>
        <mxCell id="ynNqAgBeD6FO-1CvZPlz-100" value="TAKES" style="shape=rhombus;perimeter=rhombusPerimeter;whiteSpace=wrap;html=1;align=center;fontStyle=1;fontSize=14;" vertex="1" parent="1">
          <mxGeometry x="320" y="610" width="120" height="60" as="geometry" />
        </mxCell>
        <mxCell id="ynNqAgBeD6FO-1CvZPlz-101" value="" style="endArrow=none;html=1;rounded=0;entryX=0;entryY=0;entryDx=0;entryDy=0;exitX=0.75;exitY=1;exitDx=0;exitDy=0;fontStyle=1;fontSize=14;" edge="1" parent="1" source="ynNqAgBeD6FO-1CvZPlz-10" target="ynNqAgBeD6FO-1CvZPlz-100">
          <mxGeometry relative="1" as="geometry">
            <mxPoint x="180" y="600" as="sourcePoint" />
            <mxPoint x="340" y="600" as="targetPoint" />
          </mxGeometry>
        </mxCell>
        <mxCell id="ynNqAgBeD6FO-1CvZPlz-103" value="" style="endArrow=none;html=1;rounded=0;exitX=0.5;exitY=1;exitDx=0;exitDy=0;entryX=0.25;entryY=0;entryDx=0;entryDy=0;fontStyle=1;fontSize=14;" edge="1" parent="1" source="ynNqAgBeD6FO-1CvZPlz-100" target="ynNqAgBeD6FO-1CvZPlz-64">
          <mxGeometry relative="1" as="geometry">
            <mxPoint x="180" y="600" as="sourcePoint" />
            <mxPoint x="340" y="600" as="targetPoint" />
          </mxGeometry>
        </mxCell>
        <mxCell id="ynNqAgBeD6FO-1CvZPlz-104" value="(2,5)" style="text;html=1;align=center;verticalAlign=middle;resizable=0;points=[];autosize=1;strokeColor=none;fillColor=none;fontStyle=1;fontSize=14;" vertex="1" parent="1">
          <mxGeometry x="260" y="490" width="40" height="20" as="geometry" />
        </mxCell>
        <mxCell id="ynNqAgBeD6FO-1CvZPlz-105" value="(5,s)" style="text;html=1;align=center;verticalAlign=middle;resizable=0;points=[];autosize=1;strokeColor=none;fillColor=none;fontStyle=1;fontSize=14;" vertex="1" parent="1">
          <mxGeometry x="360" y="690" width="40" height="20" as="geometry" />
        </mxCell>
        <mxCell id="ynNqAgBeD6FO-1CvZPlz-106" value="lgrade" style="ellipse;whiteSpace=wrap;html=1;align=center;fontStyle=1;fontSize=14;" vertex="1" parent="1">
          <mxGeometry x="240" y="670" width="100" height="40" as="geometry" />
        </mxCell>
        <mxCell id="ynNqAgBeD6FO-1CvZPlz-108" value="" style="endArrow=none;html=1;rounded=0;exitX=1;exitY=0.5;exitDx=0;exitDy=0;entryX=0;entryY=0.5;entryDx=0;entryDy=0;fontStyle=1;fontSize=14;" edge="1" parent="1" target="ynNqAgBeD6FO-1CvZPlz-100">
          <mxGeometry relative="1" as="geometry">
            <mxPoint x="310" y="640" as="sourcePoint" />
            <mxPoint x="530" y="680" as="targetPoint" />
          </mxGeometry>
        </mxCell>
        <mxCell id="ynNqAgBeD6FO-1CvZPlz-109" value="" style="endArrow=none;html=1;rounded=0;exitX=1;exitY=0;exitDx=0;exitDy=0;entryX=0;entryY=1;entryDx=0;entryDy=0;fontStyle=1;fontSize=14;" edge="1" parent="1" source="ynNqAgBeD6FO-1CvZPlz-106" target="ynNqAgBeD6FO-1CvZPlz-100">
          <mxGeometry relative="1" as="geometry">
            <mxPoint x="370" y="680" as="sourcePoint" />
            <mxPoint x="530" y="680" as="targetPoint" />
          </mxGeometry>
        </mxCell>
        <mxCell id="ynNqAgBeD6FO-1CvZPlz-110" value="TEACHES" style="shape=rhombus;perimeter=rhombusPerimeter;whiteSpace=wrap;html=1;align=center;fontStyle=1;fontSize=14;" vertex="1" parent="1">
          <mxGeometry x="470" y="570" width="120" height="60" as="geometry" />
        </mxCell>
        <mxCell id="ynNqAgBeD6FO-1CvZPlz-111" value="" style="endArrow=none;html=1;rounded=0;exitX=1;exitY=0;exitDx=0;exitDy=0;entryX=0.25;entryY=1;entryDx=0;entryDy=0;fontStyle=1;fontSize=14;" edge="1" parent="1" source="ynNqAgBeD6FO-1CvZPlz-110" target="ynNqAgBeD6FO-1CvZPlz-27">
          <mxGeometry relative="1" as="geometry">
            <mxPoint x="370" y="680" as="sourcePoint" />
            <mxPoint x="530" y="680" as="targetPoint" />
          </mxGeometry>
        </mxCell>
        <mxCell id="ynNqAgBeD6FO-1CvZPlz-112" value="" style="endArrow=none;html=1;rounded=0;exitX=0.57;exitY=-0.05;exitDx=0;exitDy=0;entryX=0;entryY=1;entryDx=0;entryDy=0;exitPerimeter=0;fontStyle=1;fontSize=14;" edge="1" parent="1" source="ynNqAgBeD6FO-1CvZPlz-64" target="ynNqAgBeD6FO-1CvZPlz-110">
          <mxGeometry relative="1" as="geometry">
            <mxPoint x="370" y="680" as="sourcePoint" />
            <mxPoint x="530" y="680" as="targetPoint" />
          </mxGeometry>
        </mxCell>
        <mxCell id="ynNqAgBeD6FO-1CvZPlz-113" value="(1,1)" style="text;html=1;align=center;verticalAlign=middle;resizable=0;points=[];autosize=1;strokeColor=none;fillColor=none;fontStyle=1;fontSize=14;" vertex="1" parent="1">
          <mxGeometry x="450" y="700" width="40" height="20" as="geometry" />
        </mxCell>
        <mxCell id="ynNqAgBeD6FO-1CvZPlz-114" value="(0,4)" style="text;html=1;align=center;verticalAlign=middle;resizable=0;points=[];autosize=1;strokeColor=none;fillColor=none;fontStyle=1;fontSize=14;" vertex="1" parent="1">
          <mxGeometry x="650" y="490" width="40" height="20" as="geometry" />
        </mxCell>
        <mxCell id="ynNqAgBeD6FO-1CvZPlz-115" value="OFFERS" style="shape=rhombus;perimeter=rhombusPerimeter;whiteSpace=wrap;html=1;align=center;fontStyle=1;fontSize=14;" vertex="1" parent="1">
          <mxGeometry x="-60" y="820" width="120" height="60" as="geometry" />
        </mxCell>
        <mxCell id="ynNqAgBeD6FO-1CvZPlz-116" value="" style="endArrow=none;html=1;rounded=0;exitX=0.5;exitY=1;exitDx=0;exitDy=0;entryX=0;entryY=0.5;entryDx=0;entryDy=0;fontStyle=1;fontSize=14;" edge="1" parent="1" source="ynNqAgBeD6FO-1CvZPlz-115" target="ynNqAgBeD6FO-1CvZPlz-51">
          <mxGeometry relative="1" as="geometry">
            <mxPoint x="340" y="830" as="sourcePoint" />
            <mxPoint x="500" y="830" as="targetPoint" />
            <Array as="points">
              <mxPoint y="950" />
            </Array>
          </mxGeometry>
        </mxCell>
        <mxCell id="ynNqAgBeD6FO-1CvZPlz-117" value="" style="endArrow=none;html=1;rounded=0;exitX=0;exitY=0.5;exitDx=0;exitDy=0;entryX=0.5;entryY=0;entryDx=0;entryDy=0;fontStyle=1;fontSize=14;" edge="1" parent="1" source="ynNqAgBeD6FO-1CvZPlz-44" target="ynNqAgBeD6FO-1CvZPlz-115">
          <mxGeometry relative="1" as="geometry">
            <mxPoint x="340" y="380" as="sourcePoint" />
            <mxPoint x="30" y="670" as="targetPoint" />
            <Array as="points">
              <mxPoint y="220" />
            </Array>
          </mxGeometry>
        </mxCell>
        <mxCell id="ynNqAgBeD6FO-1CvZPlz-118" value="(1,c)" style="text;html=1;align=center;verticalAlign=middle;resizable=0;points=[];autosize=1;strokeColor=none;fillColor=none;fontStyle=1;fontSize=14;" vertex="1" parent="1">
          <mxGeometry x="310" y="200" width="40" height="20" as="geometry" />
        </mxCell>
        <mxCell id="ynNqAgBeD6FO-1CvZPlz-119" value="(1,1)" style="text;html=1;align=center;verticalAlign=middle;resizable=0;points=[];autosize=1;strokeColor=none;fillColor=none;fontStyle=1;fontSize=14;" vertex="1" parent="1">
          <mxGeometry x="340" y="920" width="40" height="20" as="geometry" />
        </mxCell>
        <mxCell id="ynNqAgBeD6FO-1CvZPlz-121" value="MAJORS" style="shape=rhombus;perimeter=rhombusPerimeter;whiteSpace=wrap;html=1;align=center;fontStyle=1;fontSize=14;" vertex="1" parent="1">
          <mxGeometry x="240" y="300" width="120" height="60" as="geometry" />
        </mxCell>
        <mxCell id="ynNqAgBeD6FO-1CvZPlz-122" value="" style="endArrow=none;html=1;rounded=0;exitX=0.5;exitY=0;exitDx=0;exitDy=0;entryX=0;entryY=1;entryDx=0;entryDy=0;fontStyle=1;fontSize=14;" edge="1" parent="1" source="ynNqAgBeD6FO-1CvZPlz-10" target="ynNqAgBeD6FO-1CvZPlz-121">
          <mxGeometry relative="1" as="geometry">
            <mxPoint x="370" y="440" as="sourcePoint" />
            <mxPoint x="530" y="440" as="targetPoint" />
          </mxGeometry>
        </mxCell>
        <mxCell id="ynNqAgBeD6FO-1CvZPlz-123" value="(1,2)" style="text;html=1;align=center;verticalAlign=middle;resizable=0;points=[];autosize=1;strokeColor=none;fillColor=none;fontStyle=1;fontSize=14;" vertex="1" parent="1">
          <mxGeometry x="230" y="420" width="40" height="20" as="geometry" />
        </mxCell>
        <mxCell id="ynNqAgBeD6FO-1CvZPlz-124" value="" style="endArrow=none;html=1;rounded=0;exitX=1;exitY=0;exitDx=0;exitDy=0;entryX=0.25;entryY=1;entryDx=0;entryDy=0;fontStyle=1;fontSize=14;" edge="1" parent="1" source="ynNqAgBeD6FO-1CvZPlz-121" target="ynNqAgBeD6FO-1CvZPlz-44">
          <mxGeometry relative="1" as="geometry">
            <mxPoint x="370" y="440" as="sourcePoint" />
            <mxPoint x="530" y="440" as="targetPoint" />
          </mxGeometry>
        </mxCell>
        <mxCell id="ynNqAgBeD6FO-1CvZPlz-125" value="(0,k)" style="text;html=1;align=center;verticalAlign=middle;resizable=0;points=[];autosize=1;strokeColor=none;fillColor=none;fontStyle=1;fontSize=14;" vertex="1" parent="1">
          <mxGeometry x="350" y="250" width="40" height="20" as="geometry" />
        </mxCell>
        <mxCell id="ynNqAgBeD6FO-1CvZPlz-126" value="CONTAINS" style="shape=rhombus;perimeter=rhombusPerimeter;whiteSpace=wrap;html=1;align=center;fontStyle=1;fontSize=14;" vertex="1" parent="1">
          <mxGeometry x="510" y="300" width="120" height="60" as="geometry" />
        </mxCell>
        <mxCell id="ynNqAgBeD6FO-1CvZPlz-127" value="" style="endArrow=none;html=1;rounded=0;exitX=1;exitY=1;exitDx=0;exitDy=0;entryX=0.25;entryY=0;entryDx=0;entryDy=0;fontStyle=1;fontSize=14;" edge="1" parent="1" source="ynNqAgBeD6FO-1CvZPlz-126" target="ynNqAgBeD6FO-1CvZPlz-27">
          <mxGeometry relative="1" as="geometry">
            <mxPoint x="370" y="440" as="sourcePoint" />
            <mxPoint x="530" y="440" as="targetPoint" />
          </mxGeometry>
        </mxCell>
        <mxCell id="ynNqAgBeD6FO-1CvZPlz-128" value="" style="endArrow=none;html=1;rounded=0;exitX=0.75;exitY=1;exitDx=0;exitDy=0;entryX=0;entryY=0;entryDx=0;entryDy=0;fontStyle=1;fontSize=14;" edge="1" parent="1" source="ynNqAgBeD6FO-1CvZPlz-44" target="ynNqAgBeD6FO-1CvZPlz-126">
          <mxGeometry relative="1" as="geometry">
            <mxPoint x="370" y="440" as="sourcePoint" />
            <mxPoint x="530" y="440" as="targetPoint" />
          </mxGeometry>
        </mxCell>
        <mxCell id="ynNqAgBeD6FO-1CvZPlz-129" value="(1,a)" style="text;html=1;align=center;verticalAlign=middle;resizable=0;points=[];autosize=1;strokeColor=none;fillColor=none;fontStyle=1;fontSize=14;" vertex="1" parent="1">
          <mxGeometry x="440" y="250" width="40" height="20" as="geometry" />
        </mxCell>
        <mxCell id="ynNqAgBeD6FO-1CvZPlz-130" value="(1,3)" style="text;html=1;align=center;verticalAlign=middle;resizable=0;points=[];autosize=1;strokeColor=none;fillColor=none;fontStyle=1;fontSize=14;" vertex="1" parent="1">
          <mxGeometry x="660" y="410" width="40" height="20" as="geometry" />
        </mxCell>
        <mxCell id="ynNqAgBeD6FO-1CvZPlz-131" value="ngrade" style="ellipse;whiteSpace=wrap;html=1;align=center;dashed=1;fontStyle=1;fontSize=14;" vertex="1" parent="1">
          <mxGeometry x="210" y="620" width="100" height="40" as="geometry" />
        </mxCell>
      </root>
    </mxGraphModel>
  </diagram>
</mxfile>
